<?xml version="1.0" encoding="UTF-8"?>
<svg id="Layer_1" xmlns="http://www.w3.org/2000/svg" version="1.1" xmlns:xlink="http://www.w3.org/1999/xlink" viewBox="0 0 1037.4 240.5">
  <!-- Generator: Adobe Illustrator 30.6.0, SVG Export Plug-In . SVG Version: 2.1.4 Build 109)  -->
  <defs>
    <style>
      .st0 {
        fill: url(#linear-gradient2);
      }

      .st1 {
        fill: url(#linear-gradient1);
      }

      .st2 {
        fill: none;
        stroke: #6f5ca8;
        stroke-width: 3px;
      }

      .st3 {
        fill: url(#linear-gradient4);
      }

      .st4 {
        fill: url(#linear-gradient5);
      }

      .st5 {
        fill: url(#linear-gradient3);
      }

      .st6 {
        fill: #5a58a6;
      }

      .st7 {
        fill: url(#linear-gradient);
      }
    </style>
    <linearGradient id="linear-gradient" x1="1.3" y1="187" x2="1036.1" y2="187" gradientTransform="translate(0 311.8) scale(1 -1)" gradientUnits="userSpaceOnUse">
      <stop offset="0" stop-color="#5a5aa6"/>
      <stop offset="0" stop-color="#635ea9"/>
      <stop offset=".2" stop-color="#8b74b1"/>
      <stop offset=".3" stop-color="#ae85b9"/>
      <stop offset=".5" stop-color="#c893bf"/>
      <stop offset=".7" stop-color="#dc9ec6"/>
      <stop offset=".8" stop-color="#e7a3c9"/>
      <stop offset="1" stop-color="#eaa7ca"/>
    </linearGradient>
    <linearGradient id="linear-gradient1" x1="1.3" y1="194.9" x2="1036" y2="194.9" gradientTransform="translate(0 311.8) scale(1 -1)" gradientUnits="userSpaceOnUse">
      <stop offset="0" stop-color="#5a5aa6"/>
      <stop offset="0" stop-color="#635ea9"/>
      <stop offset=".2" stop-color="#8b74b1"/>
      <stop offset=".3" stop-color="#ae85b9"/>
      <stop offset=".5" stop-color="#c893bf"/>
      <stop offset=".7" stop-color="#dc9ec6"/>
      <stop offset=".8" stop-color="#e7a3c9"/>
      <stop offset="1" stop-color="#eaa7ca"/>
    </linearGradient>
    <linearGradient id="linear-gradient2" x1="1.3" y1="187.6" x2="1036" y2="187.6" gradientTransform="translate(0 311.8) scale(1 -1)" gradientUnits="userSpaceOnUse">
      <stop offset="0" stop-color="#5a5aa6"/>
      <stop offset="0" stop-color="#635ea9"/>
      <stop offset=".2" stop-color="#8b74b1"/>
      <stop offset=".3" stop-color="#ae85b9"/>
      <stop offset=".5" stop-color="#c893bf"/>
      <stop offset=".7" stop-color="#dc9ec6"/>
      <stop offset=".8" stop-color="#e7a3c9"/>
      <stop offset="1" stop-color="#eaa7ca"/>
    </linearGradient>
    <linearGradient id="linear-gradient3" x1="1.3" y1="186.5" x2="1036" y2="186.5" gradientTransform="translate(0 311.8) scale(1 -1)" gradientUnits="userSpaceOnUse">
      <stop offset="0" stop-color="#5a5aa6"/>
      <stop offset="0" stop-color="#635ea9"/>
      <stop offset=".2" stop-color="#8b74b1"/>
      <stop offset=".3" stop-color="#ae85b9"/>
      <stop offset=".5" stop-color="#c893bf"/>
      <stop offset=".7" stop-color="#dc9ec6"/>
      <stop offset=".8" stop-color="#e7a3c9"/>
      <stop offset="1" stop-color="#eaa7ca"/>
    </linearGradient>
    <linearGradient id="linear-gradient4" x1="1.3" y1="187.6" x2="1036" y2="187.6" gradientTransform="translate(0 311.8) scale(1 -1)" gradientUnits="userSpaceOnUse">
      <stop offset="0" stop-color="#5a5aa6"/>
      <stop offset="0" stop-color="#635ea9"/>
      <stop offset=".2" stop-color="#8b74b1"/>
      <stop offset=".3" stop-color="#ae85b9"/>
      <stop offset=".5" stop-color="#c893bf"/>
      <stop offset=".7" stop-color="#dc9ec6"/>
      <stop offset=".8" stop-color="#e7a3c9"/>
      <stop offset="1" stop-color="#eaa7ca"/>
    </linearGradient>
    <linearGradient id="linear-gradient5" x1="1.3" y1="187.6" x2="1036" y2="187.6" gradientTransform="translate(0 311.8) scale(1 -1)" gradientUnits="userSpaceOnUse">
      <stop offset="0" stop-color="#5a5aa6"/>
      <stop offset="0" stop-color="#635ea9"/>
      <stop offset=".2" stop-color="#8b74b1"/>
      <stop offset=".3" stop-color="#ae85b9"/>
      <stop offset=".5" stop-color="#c893bf"/>
      <stop offset=".7" stop-color="#dc9ec6"/>
      <stop offset=".8" stop-color="#e7a3c9"/>
      <stop offset="1" stop-color="#eaa7ca"/>
    </linearGradient>
  </defs>
  <g>
    <path class="st6" d="M65.7,225.2c-1.6,2.3-4,4-7.3,5.2s-6.9,2.1-10.7,2.6-7.7.7-11.6.7-7.3-.3-10.1-.7c-5.2-.7-9.5-1.7-12.8-3s-5.9-3.1-7.7-5.5-3-5.4-3.5-9.2c-.5-3.8-.6-8.4-.3-14,1.2-18.9,1.8-37.6,1.8-56.3s.2-37.5.5-56.3c0-3.1,0-7.7.1-13.6,0-5.9.4-12,.9-18.3s1.3-12.2,2.4-17.8,2.6-9.6,4.7-12c2.3-2.6,5.8-4.7,10.5-6.3,4.7-1.6,9.8-2.8,15.3-3.5s10.9-1.2,16.2-1.3c5.3,0,9.7,0,13.2,0,13.1,1,25.9,3.3,38.5,6.7,12.6,3.4,23.7,8.3,33.4,14.7s17.3,14.3,22.9,23.8,8,20.9,7.3,34.2c-.3,6.5-1.7,13-4.1,19.6s-5.8,12.6-10.2,17.9c-4.5,5.3-10,9.7-16.5,13s-14.2,5-22.9,5c4,2.6,8.5,5.6,13.5,9s9.8,7,14.5,10.9c4.7,3.8,9.1,7.8,13.1,11.9s7.1,8.1,9.2,12,3,7.8,2.8,11.5c-.3,3.8-2.2,7.2-5.9,10.3-3.5,3-7.2,5.5-11.1,7.7s-8,3.7-12,4.5c-4.1.8-8.1.7-11.9-.3s-7.4-3-10.7-6.2c-8.7-8.5-17.4-17.1-25.9-25.5-8.6-8.5-17.5-16.5-27-24,.7,3,1.5,6.9,2.5,11.8s1.7,9.9,2.1,15.1.5,10,.1,14.7-1.4,8.2-3.1,10.9h-.2,0ZM63.1,106.6c5.4.9,11.1,1,17,.5s11.1-1.7,15.5-3.5,7.4-4.3,9-7.5c1.7-3.1.9-7-2.2-11.5-3.3-4.5-8-7.9-13.9-10s-11.7-3-17.3-2.9c-3.3.2-5.6,1.4-6.8,3.8s-1.9,5.3-2.1,8.8,0,7.2.4,11.3c.4,4,.6,7.7.4,11h0ZM129.8,51.3c.7,1.2,1.7,1.8,3.1,1.7,1.4,0,2.6-.6,3.7-1.4.9-.9.9-1.9.1-3s-1.7-2.1-2.8-3c-.9-.7-1.7-1.5-2.4-2.5-.7-1-1.6-1.6-2.6-2-.9-.5-1.8-.9-2.8-1.2s-1.9-.6-2.8-.9c-1.4-.5-2.7-1.2-3.9-2-1.2-.8-2.5-1.4-3.9-2-1.8-.7-3.5-1.4-5.1-2.1-1.7-.7-3.4-1.2-5.1-1.6-.9-.2-2.7-.3-5.4-.5-2.7-.2-4.5,0-5.4.3s-1.5.8-1.8,1.4c-.4.6-.3,1.3.3,2,.4.3,1.1.6,2.2.8s2,.3,2.5.5c2.4.3,4.9,1,7.2,1.8,2.4.9,4.8,1.8,7.2,2.6,1.2.3,2.3,1,3.3,2.1s2,1.8,3.3,2.4c1.6.9,3.1,1.4,4.7,1.6.7.3,1.3.7,1.8,1.2s1,.8,1.6,1.2c.4.3.9.8,1.6,1.3s1.1,1,1.3,1.3h.1,0ZM154.7,84c1.2.3,2.3.2,3.3-.4s1.4-1.6,1.2-3c-.5-2.8-1.4-5.5-2.6-8s-2.5-5-3.7-7.5c-.9-1.7-2-3.3-3.3-4.6s-2.7-2.4-4.1-3.3c-1-1.4-2.3-1.7-3.8-.8s-1.8,2.1-.9,3.7c.2.3.8.9,2,1.7,1.1.8,1.8,1.3,2,1.7,2.1,2.8,3.9,5.8,5.4,8.9,1.5,3.1,2.6,6.5,3.3,10,0,.7.4,1.2,1.3,1.6h-.1,0Z"/>
    <path class="st6" d="M240.1,231.8c-4.4.2-8.7.2-13,0s-8.6-.6-13-1.3c-3.8-.5-7.6-1.5-11.3-2.9s-7-3.3-10-5.8c-3.5-3.1-6.2-6.8-8.1-11.1s-3.4-8.7-4.5-13.2c-1.9-8-3-16.1-3.3-24.2s-.2-16.2.1-24.2c.3-12.6,1.1-25,2.4-37.5,1.2-12.4,2.7-24.9,4.5-37.5v-.5c.5-15.7,3.3-31.2,8.4-46.3.9-2.6,2-5.2,3.3-7.9s3-5,5.1-7.1c3-3,6.5-5.2,10.7-6.5,4.2-1.4,8.4-2.4,12.6-3.1,6.6-1,13.2-1.4,19.6-1,6.5.3,13,.7,19.6,1,12.7.5,25.2,1.3,37.5,2.4,5.4.3,10.8,1.1,16.2,2.4,5.4,1.2,10.5,3.2,15.2,6,1.4.9,2.8,1.9,4.3,3s2.5,2.5,3,4.1c.3,1,.5,2.7.4,5,0,2.3-.3,4.6-.7,7.1-.3,2.5-.8,4.8-1.3,7.1s-.9,3.9-1,5c-.7,3.5-1.8,6.9-3.4,10.3s-3.8,6.3-6.5,8.8c-3,2.6-6.2,4.2-9.7,4.7-3.8.9-7.8,1.1-11.8.7-4-.4-8-1.2-11.8-2.2-12.6-3.3-25.3-5.7-38.2-7.1-1.6-.3-3.4-.5-5.4-.5s-3.2.7-3.5,2.1c-.3.9-.7,2-.9,3.5s-.5,3.1-.7,4.7c-.2,1.7-.3,3.3-.4,4.8,0,1.6,0,2.7.4,3.4.2.5.6.8,1.2.9.6,0,1.2.2,1.7.4,6.6.2,13.3-.2,20-1,6.7-.9,13.4-.9,20,0,3,.3,6,1,9.2,2.1,3.1,1,5.7,2.7,7.6,5,1,1.2,1.7,3,2.1,5.4.3,2.4.4,4.9.3,7.6-.2,2.7-.4,5.3-.8,7.9-.3,2.5-.6,4.6-.8,6.2-.3,2.1-.8,4.2-1.3,6.2s-1.3,4-2.4,5.9c-1.4,2.5-3.2,4.4-5.5,5.8-2.3,1.2-4.6,2-7.1,2.2-2.5.3-4.9.4-7.3.4-6.1.2-12.1-.1-18.1-.9-5.9-.8-12-1.2-18.1-1.2s-2.1,0-3.8.1-2.8.4-3.3.9c-.3.3-.6,1.1-.8,2.4-.2,1.2-.3,2.1-.3,2.6-.3,4.5,0,8.8,1,12.8.7,2.8,2.2,4.7,4.5,5.8.5.3,1.7.6,3.7.8,1.9.2,3.2.3,3.9.3,10-.3,19.7-1.9,29.3-4.6,9.6-2.7,19.3-5.1,29.1-7.2,1.9-.3,4-.6,6.2-.7,2.2,0,4.1.4,5.9,1.4,2.3,1.6,4,3.8,5.2,6.8,1.4,2.5,2.4,5.1,3.1,7.9.7,2.8,1.2,5.6,1.6,8.4.7,4.5,1.1,9,1.3,13.5s-.2,8.9-1,13.2c-.3,2.3-1,4.5-1.8,6.5-.9,2.1-2,4-3.4,5.8-2.6,3.1-5.9,5.7-10,7.6-3.5,1.8-7.2,3.1-11,4.1s-7.7,1.9-11.5,2.8c-8.9,2.1-17.8,4.2-26.7,6.3-8.9,2.1-17.9,3.4-27,3.9h0l.3-.5h0ZM293.2,19.6c1,.2,2-.2,2.9-1s1.1-1.7.8-2.6c-.2-.3-.4-.6-.8-.8-.3-.2-.6-.4-.8-.8-.7-.9-1.6-1.4-2.8-1.6-1.1-.2-2.2-.4-3.3-.8-1.8-.3-3.4-.7-5-.9-1.6-.3-3.2-.5-5-.7-.9-.2-2.7,0-5.4,0s-4.5.5-5.4.7c-1.4.2-2.5.7-3.4,1.7s-.8,1.9.3,2.8c.5.3,1.3.6,2.4.7,1,0,2.2.2,3.4.3,1.2,0,2.4,0,3.7,0h2.6c1.9.3,3.8.8,5.5,1.3s3.6,1,5.5,1.3c.9.2,1.7.2,2.4,0,.7,0,1.5,0,2.4,0h0ZM286.7,92.7c.5.2,1,.3,1.6.5.5.2,1,.3,1.6.3,1.6,0,2.8-.7,3.7-2s.6-2.4-.8-3.3c-.9-.5-2.2-.9-4.1-1-1.8-.2-3.8-.3-5.9-.3s-4.1,0-5.9.3c-1.8.2-3.3.3-4.3.3s-2.4.2-2.9.5c-.9.5-1.3,1.2-1.3,2.1s.4,1.4,1.3,1.6c1.2.3,2.4.5,3.5.5s2.3,0,3.5-.3c.9,0,2.6,0,5.1.1,2.5,0,4.2.3,4.8.7h.1ZM320.2,24.6c1.7.3,3.4.9,5,1.7s3.1.9,4.7.4c1.4-.5,2.3-1.4,2.6-2.8s-.2-2.3-1.6-3c-.5-.2-1.4-.3-2.6-.3-.9-.3-1.8-.7-2.8-.9s-1.9-.5-2.8-.7c-.3-.2-1.2-.2-2.5,0-1.3,0-2.1,0-2.5,0-3.7-1-7.5-1.6-11.5-1.6s-2.1.5-2.6,1.6-.3,1.9.8,2.6c.5.3,1.7.7,3.7.9,1.9.3,3.2.5,3.9.7.5.2,1,.4,1.6.7s1,.5,1.6.7c.9.2,1.7.2,2.5.1.8,0,1.6,0,2.5.1h0Z"/>
    <path class="st6" d="M450.6,238c-1.9.5-5,.5-9.3-.1s-8.8-1.4-13.5-2.5c-4.7-1-9.2-2-13.5-3s-7.4-1.6-9.3-2c-2.3-.3-6.2-.7-11.8-.9-5.6-.3-11.5-.6-17.7-1s-12-1-17.5-1.6-9.3-1.4-11.4-2.5c-3.1-1.6-5.4-3.9-6.7-7.1s-1.9-6.5-1.7-10.1,1-7.2,2.5-10.9,3.4-6.9,5.9-9.7c.7-.9,2.4-1.7,5-2.5s5.3-1.6,8-2.5,5.2-1.8,7.5-2.8,3.6-2,3.9-3.3c4-18.2,7.6-36.4,10.7-54.7,3.1-18.3,5-36.8,5.5-55.3,0-.2-.7-.2-2.2,0s-3.1.4-5,.7-3.7.5-5.5.7-3.1.2-3.8,0c-2.8-.5-5.2-1.9-7.3-4.2s-3.8-5-5-8.2-2-6.8-2.2-10.6c-.3-3.8,0-7.5.7-10.9s1.9-6.4,3.5-9c1.7-2.6,3.9-4.5,6.7-5.5,4-1.4,9-2.7,14.9-3.9,5.9-1.2,12.4-2.2,19.4-3s14.2-1.3,21.6-1.4c7.4-.2,14.5,0,21.3.4s13.1,1.3,18.9,2.5c5.8,1.2,10.6,2.9,14.4,5,3.8,2.1,6.5,5.5,8.1,10.3,1.6,4.8,2.2,9.5,1.8,14-.5,5.8-1.2,10.3-2,13.8s-2.2,5.9-4.2,7.6c-2,1.7-4.8,2.5-8.2,2.6-3.5,0-8.2-.2-14.1-.9-1.8,20.4-4.6,40.5-8.6,60.4-4,19.8-8.5,39.7-13.4,59.6,1.7.3,4,.9,6.8,1.7,2.8.8,5.5,1.8,8.2,2.9s5.2,2.5,7.3,3.9c2.2,1.5,3.7,3,4.6,4.6,1.6,3.1,2.4,6.8,2.5,11,0,4.2-.5,8.2-1.7,12.2-1.2,3.9-3.1,7.4-5.5,10.5-2.5,3-5.3,5-8.6,5.9h0v-.2h0ZM446.4,27.5c.2,0,.6,0,1.3.3.7.2,1.1.3,1.3.3.9,0,1.7-.3,2.5-1s1-1.5.7-2.4c-.2-.9-.9-1.5-2.1-2s-2.3-.8-3.1-1.2c-1.4-.3-2.8-.5-4.3-.4-1.5,0-3,0-4.6,0-1.8-.2-3.5-.4-5.2-.7s-3.6-.3-5.5,0c-1.4.2-2.8.3-4.1.4-1.3,0-2.6.5-3.8,1.2-.7.3-1.1.9-1.3,1.7-.2.8,0,1.3.8,1.7.7.3,1.3.5,2,.4.6,0,1.3-.1,2-.1,2.4,0,4.8.3,7.1,1s4.6,1,7.1,1c.7-.2,2.3-.2,4.7,0s4,.2,4.7,0h-.2ZM468.2,31.1c1.2.3,2.5.8,3.8,1.4s2.6.7,3.8.1c1-.3,1.7-1.1,2-2.2.3-1.1,0-2-1.2-2.5-.3-.2-1.2-.5-2.6-.9-1.4-.4-2.4-.7-2.9-.7-.5-.2-1.8-.4-3.9-.7s-3.4-.4-3.9-.4c-1.2,0-2.3.4-3.1,1.2-.9.8-.9,1.6,0,2.5.7.7,2,1.2,3.9,1.4,1.9.3,3.3.5,4.2.7h0q0,.1,0,0Z"/>
    <path class="st6" d="M718.8,230.7c-4.7.9-9.4,1.5-14.1,1.8-4.7.3-9.4.2-14.1-.5-2.8-.3-5.6-.9-8.4-1.6-2.8-.7-5.3-2-7.6-3.9-1.8-1.4-3.2-3.1-4.3-5.2s-2-4.3-2.8-6.5c-.9-2.8-1.5-5.6-2-8.5-.4-2.9-.8-5.8-1.2-8.8-1.6-12.7-2.6-25.5-3.1-38.2s-2-25.4-4.5-38l-.8-3.1c-3.5,6.3-7.1,12.5-10.9,18.6-3.8,6.1-7.7,12-11.9,17.8-2.5,3.5-4.9,6.9-7.5,10.2-2.5,3.3-5.4,6.4-8.5,9.2-.9.9-1.8,1.7-2.8,2.4s-2,1.2-3.3,1.6c-2.8.9-5.5.8-8.1-.3-2.5-.9-4.7-2.2-6.7-3.9-2-1.7-3.9-3.6-5.6-5.5-7.2-7.3-13.6-15.2-19.4-23.4s-11.6-16.6-17.5-25c-.2,4-.3,7.9-.5,11.7s-.3,7.6-.3,11.7c0,8.6,0,17.1,0,25.5,0,8.5.2,17,.4,25.5,0,4.4,0,8.7,0,13.1,0,4.4-1.1,8.5-3,12.3-1.4,2.6-3.8,4.6-7.1,6s-6.9,2.4-10.9,3.1-8,1.1-12,1.3c-4.1.2-7.6.3-10.6.3-1.4-.2-2.8-.3-4.2-.4-1.4,0-2.8-.2-4.2-.4-2.8-.3-5.6-1-8.4-2.1-2.8-1-5.2-2.6-7.1-4.7-1.8-1.9-2.9-4.1-3.4-6.4s-1-4.8-1.3-7.2c-.2-1.9-.3-3.8-.4-5.8,0-1.9-.2-3.8-.4-5.8-.9-23,0-46,2.8-68.9,2.7-22.9,6.9-45.5,12.7-67.8,1.2-4.2,2.4-8.4,3.5-12.6,1.1-4.2,2.7-8.3,4.6-12.3,1.9-4.5,5.1-8,9.4-10.5,2.8-1.4,5.8-2.3,8.9-2.8,3.1-.4,6.4-.7,9.7-.7,5.1-.2,10.2.2,15.5,1,5.2.9,10.2,2.3,14.9,4.2,3.8,1.6,6.7,4.2,8.6,7.9.2.3.3.6.4.7,0,0,.2.3.4.7,3.8,5.6,7.2,11.5,10.2,17.7s5.8,12.3,8.6,18.5c2.3,5.1,4.5,10.1,6.8,15.1s4.4,10,6.3,15.1c1-4,2.3-8,3.7-11.9s2.9-7.8,4.5-11.7c3-7.5,6.1-14.9,9.3-22.1,3.2-7.2,6.6-14.4,10.1-21.6,1-1.9,2.1-3.8,3.3-5.8s2.5-3.6,4.1-5c2.1-1.9,4.5-3.2,7.3-3.9,2.8-.7,5.6-1.2,8.4-1.6,5.6-.9,11.2-1.3,16.9-1.4s11.1.8,16.4,2.8c3,1,5.6,2.6,8,4.6s4.5,4.2,6.4,6.7c2.6,3.8,4.8,7.9,6.4,12.2,1.7,4.3,3.2,8.7,4.6,13.2,5.4,16.6,10,33.3,13.8,50.3,3.8,16.9,7.1,34,10.1,51.1.5,3.5,1.3,8.2,2.2,14,1,5.8,1.7,11.9,2.1,18.2.4,6.3.5,12.3,0,17.9-.3,5.7-1.5,9.9-3.4,12.7-1.9,3-4.7,5.1-8.4,6.3-3.7,1.2-7.2,2.3-10.7,3.1h0v-.3ZM547,43.5c.7.3,1.6.4,2.8.1,1.1-.3,2-.7,2.8-1.2,1.4-1,1.9-2.3,1.4-3.8-.4-1.5-1.5-2.3-3.3-2.5-.5-.2-1.5-.4-3-.7s-2.4-.5-2.8-.7c-1.8-.5-3.5-.6-5.1-.1-1.7.4-3.4.5-5.1.1h-2.6c-1.2,0-2.5,0-3.8.3-1.3.2-2.6.3-3.8.4-1.2,0-2.1.2-2.6.4-.9.3-1.6.8-2.1,1.3s-.6,1.2-.3,2.1c.3.5.8.8,1.4.9.6,0,1.2.2,1.7.4,1.4.2,2.8.2,4.3,0s2.9-.2,4.3,0c1.6.2,3.1.3,4.7.4,1.6,0,3.2.2,5,.4.5,0,1.5.3,3,.8s2.5,1,3,1.3h0c0,.1,0,.1,0,.1ZM668,38.5c1,.2,1.9,0,2.5-.7.6-.6,1-1.3,1.3-2.1s.3-1.6,0-2.5-.8-1.5-1.7-1.8c-.7-.3-1.8-.6-3.4-.7s-3.2,0-4.8.1c-1.7.2-3.3.3-5,.5s-2.8.3-3.5.5c-.9.2-2.4.3-4.5.5s-3.5.4-4.2.8-1.1.9-1.3,1.6c-.2.7,0,1.3.5,1.8.5.3,1.3.6,2.2.7,1,0,2,.1,3.1.1h5.9c2.1.2,4.2.3,6.4.4,2.2,0,4.3.3,6.4.7h0q0,.1,0,0ZM692.4,46.9c-.5,2.5.3,3.5,2.6,3.1,2.1-.3,3.4-1.2,3.8-2.6.4-1.4.3-2.9-.5-4.6-.8-1.7-2.1-3.2-3.9-4.7-1.8-1.5-3.8-2.5-5.9-3-.9-.2-1.7-.4-2.5-.7s-1.5-.2-2.2.1c-1.4.7-2.1,1.6-2,2.6,0,1,.8,1.8,2.2,2.4,1.9.3,3.6,1.2,5,2.6s2.5,3,3.4,4.7h0q0,.1,0,0Z"/>
    <path class="st6" d="M853.4,238c-1.9.5-5,.5-9.3-.1s-8.8-1.4-13.5-2.5c-4.7-1-9.2-2-13.5-3s-7.4-1.6-9.3-2c-2.3-.3-6.2-.7-11.8-.9-5.6-.3-11.5-.6-17.7-1s-12.1-1-17.6-1.6-9.3-1.4-11.4-2.5c-3.1-1.6-5.4-3.9-6.7-7.1s-1.9-6.5-1.7-10.1c.2-3.6,1-7.2,2.5-10.9s3.4-6.9,5.9-9.7c.7-.9,2.4-1.7,5-2.5s5.3-1.6,8-2.5,5.2-1.8,7.5-2.8,3.6-2,3.9-3.3c4-18.2,7.6-36.4,10.7-54.7s5-36.8,5.5-55.3c0-.2-.7-.2-2.2,0s-3.1.4-5,.7-3.7.5-5.5.7-3.1.2-3.8,0c-2.8-.5-5.2-1.9-7.3-4.2-2.1-2.3-3.8-5-5-8.2s-2-6.8-2.2-10.6c-.3-3.8,0-7.5.7-10.9s1.9-6.4,3.5-9c1.7-2.6,3.9-4.5,6.7-5.5,4-1.4,9-2.7,14.9-3.9,5.9-1.2,12.4-2.2,19.4-3s14.2-1.3,21.6-1.4c7.4-.2,14.5,0,21.3.4s13.1,1.3,18.9,2.5,10.6,2.9,14.4,5,6.6,5.5,8.1,10.3c1.6,4.8,2.2,9.5,1.8,14-.5,5.8-1.2,10.3-2,13.8-.8,3.4-2.2,5.9-4.2,7.6-2,1.7-4.8,2.5-8.2,2.6-3.5,0-8.2-.2-14.1-.9-1.8,20.4-4.6,40.5-8.6,60.4-4,19.8-8.5,39.7-13.4,59.6,1.7.3,4,.9,6.8,1.7,2.8.8,5.5,1.8,8.2,2.9s5.2,2.5,7.3,3.9c2.2,1.5,3.7,3,4.6,4.6,1.6,3.1,2.4,6.8,2.5,11s-.5,8.2-1.7,12.2-3.1,7.4-5.5,10.5c-2.4,3-5.3,5-8.6,5.9h0v-.2c0,0,0,0,0,0ZM849.2,27.5c.2,0,.6,0,1.3.3.7.2,1.1.3,1.3.3.9,0,1.7-.3,2.5-1s1-1.5.7-2.4c-.2-.9-.9-1.5-2.1-2s-2.3-.8-3.1-1.2c-1.4-.3-2.8-.5-4.3-.4-1.5,0-3,0-4.6,0-1.8-.2-3.5-.4-5.2-.7s-3.6-.3-5.5,0c-1.4.2-2.8.3-4.1.4-1.3,0-2.6.5-3.8,1.2-.7.3-1.1.9-1.3,1.7-.2.8,0,1.3.8,1.7.7.3,1.3.5,2,.4.6,0,1.3-.1,2-.1,2.4,0,4.8.3,7.1,1,2.3.7,4.6,1,7.1,1,.7-.2,2.3-.2,4.7,0,2.4.2,4,.2,4.7,0h-.2ZM871,31.1c1.2.3,2.5.8,3.8,1.4s2.6.7,3.8.1c1.1-.3,1.7-1.1,2-2.2.3-1.1,0-2-1.2-2.5-.3-.2-1.2-.5-2.6-.9s-2.4-.7-2.9-.7c-.5-.2-1.8-.4-3.9-.7s-3.4-.4-3.9-.4c-1.2,0-2.3.4-3.1,1.2-.9.8-.9,1.6,0,2.5.7.7,2,1.2,3.9,1.4,1.9.3,3.3.5,4.2.7h0q0,.1,0,0Z"/>
    <path class="st6" d="M999,238c-1.9.5-5,.5-9.3-.1s-8.8-1.4-13.5-2.5c-4.7-1-9.2-2-13.5-3s-7.4-1.6-9.3-2c-2.3-.3-6.2-.7-11.8-.9-5.6-.3-11.5-.6-17.7-1s-12.1-1-17.6-1.6-9.3-1.4-11.4-2.5c-3.1-1.6-5.4-3.9-6.7-7.1s-1.9-6.5-1.7-10.1c.2-3.6,1-7.2,2.5-10.9s3.4-6.9,5.9-9.7c.7-.9,2.4-1.7,5-2.5s5.3-1.6,8-2.5,5.2-1.8,7.5-2.8,3.6-2,3.9-3.3c4-18.2,7.6-36.4,10.7-54.7s5-36.8,5.5-55.3c0-.2-.7-.2-2.2,0s-3.1.4-5,.7-3.7.5-5.5.7-3.1.2-3.8,0c-2.8-.5-5.2-1.9-7.3-4.2-2.1-2.3-3.8-5-5-8.2s-2-6.8-2.2-10.6c-.3-3.8,0-7.5.7-10.9s1.9-6.4,3.5-9c1.7-2.6,3.9-4.5,6.7-5.5,4-1.4,9-2.7,14.9-3.9,5.9-1.2,12.4-2.2,19.4-3s14.2-1.3,21.6-1.4c7.4-.2,14.5,0,21.3.4s13.1,1.3,18.9,2.5,10.6,2.9,14.4,5,6.6,5.5,8.1,10.3c1.6,4.8,2.2,9.5,1.8,14-.5,5.8-1.2,10.3-2,13.8-.8,3.4-2.2,5.9-4.2,7.6-2,1.7-4.8,2.5-8.2,2.6-3.5,0-8.2-.2-14.1-.9-1.8,20.4-4.6,40.5-8.6,60.4-4,19.8-8.5,39.7-13.4,59.6,1.7.3,4,.9,6.8,1.7,2.8.8,5.5,1.8,8.2,2.9s5.2,2.5,7.3,3.9c2.2,1.5,3.7,3,4.6,4.6,1.6,3.1,2.4,6.8,2.5,11s-.5,8.2-1.7,12.2-3.1,7.4-5.5,10.5c-2.4,3-5.3,5-8.6,5.9h0v-.2c0,0,0,0,0,0ZM994.8,27.5c.2,0,.6,0,1.3.3.7.2,1.1.3,1.3.3.9,0,1.7-.3,2.5-1s1-1.5.7-2.4c-.2-.9-.9-1.5-2.1-2s-2.3-.8-3.1-1.2c-1.4-.3-2.8-.5-4.3-.4-1.5,0-3,0-4.6,0-1.8-.2-3.5-.4-5.2-.7s-3.6-.3-5.5,0c-1.4.2-2.8.3-4.1.4-1.3,0-2.6.5-3.8,1.2-.7.3-1.1.9-1.3,1.7-.2.8,0,1.3.8,1.7.7.3,1.3.5,2,.4.6,0,1.3-.1,2-.1,2.4,0,4.8.3,7.1,1,2.3.7,4.6,1,7.1,1,.7-.2,2.3-.2,4.7,0,2.4.2,4,.2,4.7,0h-.2ZM1016.6,31.1c1.2.3,2.5.8,3.8,1.4s2.6.7,3.8.1c1.1-.3,1.7-1.1,2-2.2.3-1.1,0-2-1.2-2.5-.3-.2-1.2-.5-2.6-.9s-2.4-.7-2.9-.7c-.5-.2-1.8-.4-3.9-.7s-3.4-.4-3.9-.4c-1.2,0-2.3.4-3.1,1.2-.9.8-.9,1.6,0,2.5.7.7,2,1.2,3.9,1.4,1.9.3,3.3.5,4.2.7h0q0,.1,0,0Z"/>
  </g>
  <g>
    <path class="st7" d="M65.7,225.2c-1.6,2.3-4,4-7.3,5.2s-6.9,2.1-10.7,2.6-7.7.7-11.6.7-7.3-.3-10.1-.7c-5.2-.7-9.5-1.7-12.8-3s-5.9-3.1-7.7-5.5-3-5.4-3.5-9.2c-.5-3.8-.6-8.4-.3-14,1.2-18.9,1.8-37.6,1.8-56.3s.2-37.5.5-56.3c0-3.1,0-7.7.1-13.6,0-5.9.4-12,.9-18.3s1.3-12.2,2.4-17.8,2.6-9.6,4.7-12c2.3-2.6,5.8-4.7,10.5-6.3,4.7-1.6,9.8-2.8,15.3-3.5s10.9-1.2,16.2-1.3c5.3,0,9.7,0,13.2,0,13.1,1,25.9,3.3,38.5,6.7,12.6,3.4,23.7,8.3,33.4,14.7s17.3,14.3,22.9,23.8,8,20.9,7.3,34.2c-.3,6.5-1.7,13-4.1,19.6s-5.8,12.6-10.2,17.9c-4.5,5.3-10,9.7-16.5,13s-14.2,5-22.9,5c4,2.6,8.5,5.6,13.5,9s9.8,7,14.5,10.9c4.7,3.8,9.1,7.8,13.1,11.9s7.1,8.1,9.2,12,3,7.8,2.8,11.5c-.3,3.8-2.2,7.2-5.9,10.3-3.5,3-7.2,5.5-11.1,7.7s-8,3.7-12,4.5c-4.1.8-8.1.7-11.9-.3s-7.4-3-10.7-6.2c-8.7-8.5-17.4-17.1-25.9-25.5-8.6-8.5-17.5-16.5-27-24,.7,3,1.5,6.9,2.5,11.8s1.7,9.9,2.1,15.1.5,10,.1,14.7-1.4,8.2-3.1,10.9h-.2,0ZM63.1,106.6c5.4.9,11.1,1,17,.5s11.1-1.7,15.5-3.5,7.4-4.3,9-7.5c1.7-3.1.9-7-2.2-11.5-3.3-4.5-8-7.9-13.9-10s-11.7-3-17.3-2.9c-3.3.2-5.6,1.4-6.8,3.8s-1.9,5.3-2.1,8.8,0,7.2.4,11.3c.4,4,.6,7.7.4,11h0ZM129.8,51.3c.7,1.2,1.7,1.8,3.1,1.7,1.4,0,2.6-.6,3.7-1.4.9-.9.9-1.9.1-3s-1.7-2.1-2.8-3c-.9-.7-1.7-1.5-2.4-2.5-.7-1-1.6-1.6-2.6-2-.9-.5-1.8-.9-2.8-1.2s-1.9-.6-2.8-.9c-1.4-.5-2.7-1.2-3.9-2-1.2-.8-2.5-1.4-3.9-2-1.8-.7-3.5-1.4-5.1-2.1-1.7-.7-3.4-1.2-5.1-1.6-.9-.2-2.7-.3-5.4-.5-2.7-.2-4.5,0-5.4.3s-1.5.8-1.8,1.4c-.4.6-.3,1.3.3,2,.4.3,1.1.6,2.2.8s2,.3,2.5.5c2.4.3,4.9,1,7.2,1.8,2.4.9,4.8,1.8,7.2,2.6,1.2.3,2.3,1,3.3,2.1s2,1.8,3.3,2.4c1.6.9,3.1,1.4,4.7,1.6.7.3,1.3.7,1.8,1.2s1,.8,1.6,1.2c.4.3.9.8,1.6,1.3s1.1,1,1.3,1.3h.1,0ZM154.7,84c1.2.3,2.3.2,3.3-.4s1.4-1.6,1.2-3c-.5-2.8-1.4-5.5-2.6-8s-2.5-5-3.7-7.5c-.9-1.7-2-3.3-3.3-4.6s-2.7-2.4-4.1-3.3c-1-1.4-2.3-1.7-3.8-.8s-1.8,2.1-.9,3.7c.2.3.8.9,2,1.7,1.1.8,1.8,1.3,2,1.7,2.1,2.8,3.9,5.8,5.4,8.9,1.5,3.1,2.6,6.5,3.3,10,0,.7.4,1.2,1.3,1.6h-.1,0Z"/>
    <path class="st1" d="M240.1,231.8c-4.4.2-8.7.2-13,0s-8.6-.6-13-1.3c-3.8-.5-7.6-1.5-11.3-2.9s-7-3.3-10-5.8c-3.5-3.1-6.2-6.8-8.1-11.1s-3.4-8.7-4.5-13.2c-1.9-8-3-16.1-3.3-24.2s-.2-16.2.1-24.2c.3-12.6,1.1-25,2.4-37.5,1.2-12.4,2.7-24.9,4.5-37.5v-.5c.5-15.7,3.3-31.2,8.4-46.3.9-2.6,2-5.2,3.3-7.9s3-5,5.1-7.1c3-3,6.5-5.2,10.7-6.5,4.2-1.4,8.4-2.4,12.6-3.1,6.6-1,13.2-1.4,19.6-1,6.5.3,13,.7,19.6,1,12.7.5,25.2,1.3,37.5,2.4,5.4.3,10.8,1.1,16.2,2.4,5.4,1.2,10.5,3.2,15.2,6,1.4.9,2.8,1.9,4.3,3s2.5,2.5,3,4.1c.3,1,.5,2.7.4,5,0,2.3-.3,4.6-.7,7.1-.3,2.5-.8,4.8-1.3,7.1s-.9,3.9-1,5c-.7,3.5-1.8,6.9-3.4,10.3s-3.8,6.3-6.5,8.8c-3,2.6-6.2,4.2-9.7,4.7-3.8.9-7.8,1.1-11.8.7-4-.4-8-1.2-11.8-2.2-12.6-3.3-25.3-5.7-38.2-7.1-1.6-.3-3.4-.5-5.4-.5s-3.2.7-3.5,2.1c-.3.9-.7,2-.9,3.5s-.5,3.1-.7,4.7c-.2,1.7-.3,3.3-.4,4.8,0,1.6,0,2.7.4,3.4.2.5.6.8,1.2.9.6,0,1.2.2,1.7.4,6.6.2,13.3-.2,20-1,6.7-.9,13.4-.9,20,0,3,.3,6,1,9.2,2.1,3.1,1,5.7,2.7,7.6,5,1,1.2,1.7,3,2.1,5.4.3,2.4.4,4.9.3,7.6-.2,2.7-.4,5.3-.8,7.9-.3,2.5-.6,4.6-.8,6.2-.3,2.1-.8,4.2-1.3,6.2s-1.3,4-2.4,5.9c-1.4,2.5-3.2,4.4-5.5,5.8-2.3,1.2-4.6,2-7.1,2.2-2.5.3-4.9.4-7.3.4-6.1.2-12.1-.1-18.1-.9-5.9-.8-12-1.2-18.1-1.2s-2.1,0-3.8.1-2.8.4-3.3.9c-.3.3-.6,1.1-.8,2.4-.2,1.2-.3,2.1-.3,2.6-.3,4.5,0,8.8,1,12.8.7,2.8,2.2,4.7,4.5,5.8.5.3,1.7.6,3.7.8,1.9.2,3.2.3,3.9.3,10-.3,19.7-1.9,29.3-4.6,9.6-2.7,19.3-5.1,29.1-7.2,1.9-.3,4-.6,6.2-.7,2.2,0,4.1.4,5.9,1.4,2.3,1.6,4,3.8,5.2,6.8,1.4,2.5,2.4,5.1,3.1,7.9.7,2.8,1.2,5.6,1.6,8.4.7,4.5,1.1,9,1.3,13.5s-.2,8.9-1,13.2c-.3,2.3-1,4.5-1.8,6.5-.9,2.1-2,4-3.4,5.8-2.6,3.1-5.9,5.7-10,7.6-3.5,1.8-7.2,3.1-11,4.1s-7.7,1.9-11.5,2.8c-8.9,2.1-17.8,4.2-26.7,6.3-8.9,2.1-17.9,3.4-27,3.9h0l.3-.5h0ZM293.2,19.6c1,.2,2-.2,2.9-1s1.1-1.7.8-2.6c-.2-.3-.4-.6-.8-.8-.3-.2-.6-.4-.8-.8-.7-.9-1.6-1.4-2.8-1.6-1.1-.2-2.2-.4-3.3-.8-1.8-.3-3.4-.7-5-.9-1.6-.3-3.2-.5-5-.7-.9-.2-2.7,0-5.4,0s-4.5.5-5.4.7c-1.4.2-2.5.7-3.4,1.7s-.8,1.9.3,2.8c.5.3,1.3.6,2.4.7,1,0,2.2.2,3.4.3,1.2,0,2.4,0,3.7,0h2.6c1.9.3,3.8.8,5.5,1.3s3.6,1,5.5,1.3c.9.2,1.7.2,2.4,0,.7,0,1.5,0,2.4,0h0ZM286.7,92.7c.5.2,1,.3,1.6.5.5.2,1,.3,1.6.3,1.6,0,2.8-.7,3.7-2s.6-2.4-.8-3.3c-.9-.5-2.2-.9-4.1-1-1.8-.2-3.8-.3-5.9-.3s-4.1,0-5.9.3c-1.8.2-3.3.3-4.3.3s-2.4.2-2.9.5c-.9.5-1.3,1.2-1.3,2.1s.4,1.4,1.3,1.6c1.2.3,2.4.5,3.5.5s2.3,0,3.5-.3c.9,0,2.6,0,5.1.1,2.5,0,4.2.3,4.8.7h.1ZM320.2,24.6c1.7.3,3.4.9,5,1.7s3.1.9,4.7.4c1.4-.5,2.3-1.4,2.6-2.8s-.2-2.3-1.6-3c-.5-.2-1.4-.3-2.6-.3-.9-.3-1.8-.7-2.8-.9s-1.9-.5-2.8-.7c-.3-.2-1.2-.2-2.5,0-1.3,0-2.1,0-2.5,0-3.7-1-7.5-1.6-11.5-1.6s-2.1.5-2.6,1.6-.3,1.9.8,2.6c.5.3,1.7.7,3.7.9,1.9.3,3.2.5,3.9.7.5.2,1,.4,1.6.7s1,.5,1.6.7c.9.2,1.7.2,2.5.1.8,0,1.6,0,2.5.1h0Z"/>
    <path class="st0" d="M450.6,238c-1.9.5-5,.5-9.3-.1s-8.8-1.4-13.5-2.5c-4.7-1-9.2-2-13.5-3s-7.4-1.6-9.3-2c-2.3-.3-6.2-.7-11.8-.9-5.6-.3-11.5-.6-17.7-1s-12-1-17.5-1.6-9.3-1.4-11.4-2.5c-3.1-1.6-5.4-3.9-6.7-7.1s-1.9-6.5-1.7-10.1,1-7.2,2.5-10.9,3.4-6.9,5.9-9.7c.7-.9,2.4-1.7,5-2.5s5.3-1.6,8-2.5,5.2-1.8,7.5-2.8,3.6-2,3.9-3.3c4-18.2,7.6-36.4,10.7-54.7,3.1-18.3,5-36.8,5.5-55.3,0-.2-.7-.2-2.2,0s-3.1.4-5,.7-3.7.5-5.5.7-3.1.2-3.8,0c-2.8-.5-5.2-1.9-7.3-4.2s-3.8-5-5-8.2-2-6.8-2.2-10.6c-.3-3.8,0-7.5.7-10.9s1.9-6.4,3.5-9c1.7-2.6,3.9-4.5,6.7-5.5,4-1.4,9-2.7,14.9-3.9,5.9-1.2,12.4-2.2,19.4-3s14.2-1.3,21.6-1.4c7.4-.2,14.5,0,21.3.4s13.1,1.3,18.9,2.5c5.8,1.2,10.6,2.9,14.4,5,3.8,2.1,6.5,5.5,8.1,10.3,1.6,4.8,2.2,9.5,1.8,14-.5,5.8-1.2,10.3-2,13.8s-2.2,5.9-4.2,7.6c-2,1.7-4.8,2.5-8.2,2.6-3.5,0-8.2-.2-14.1-.9-1.8,20.4-4.6,40.5-8.6,60.4-4,19.8-8.5,39.7-13.4,59.6,1.7.3,4,.9,6.8,1.7,2.8.8,5.5,1.8,8.2,2.9s5.2,2.5,7.3,3.9c2.2,1.5,3.7,3,4.6,4.6,1.6,3.1,2.4,6.8,2.5,11,0,4.2-.5,8.2-1.7,12.2-1.2,3.9-3.1,7.4-5.5,10.5-2.5,3-5.3,5-8.6,5.9h0v-.2h0ZM446.4,27.5c.2,0,.6,0,1.3.3.7.2,1.1.3,1.3.3.9,0,1.7-.3,2.5-1s1-1.5.7-2.4c-.2-.9-.9-1.5-2.1-2s-2.3-.8-3.1-1.2c-1.4-.3-2.8-.5-4.3-.4-1.5,0-3,0-4.6,0-1.8-.2-3.5-.4-5.2-.7s-3.6-.3-5.5,0c-1.4.2-2.8.3-4.1.4-1.3,0-2.6.5-3.8,1.2-.7.3-1.1.9-1.3,1.7-.2.8,0,1.3.8,1.7.7.3,1.3.5,2,.4.6,0,1.3-.1,2-.1,2.4,0,4.8.3,7.1,1s4.6,1,7.1,1c.7-.2,2.3-.2,4.7,0s4,.2,4.7,0h-.2ZM468.2,31.1c1.2.3,2.5.8,3.8,1.4s2.6.7,3.8.1c1-.3,1.7-1.1,2-2.2.3-1.1,0-2-1.2-2.5-.3-.2-1.2-.5-2.6-.9-1.4-.4-2.4-.7-2.9-.7-.5-.2-1.8-.4-3.9-.7s-3.4-.4-3.9-.4c-1.2,0-2.3.4-3.1,1.2-.9.8-.9,1.6,0,2.5.7.7,2,1.2,3.9,1.4,1.9.3,3.3.5,4.2.7h0q0,.1,0,0Z"/>
    <path class="st5" d="M718.8,230.7c-4.7.9-9.4,1.5-14.1,1.8-4.7.3-9.4.2-14.1-.5-2.8-.3-5.6-.9-8.4-1.6-2.8-.7-5.3-2-7.6-3.9-1.8-1.4-3.2-3.1-4.3-5.2s-2-4.3-2.8-6.5c-.9-2.8-1.5-5.6-2-8.5-.4-2.9-.8-5.8-1.2-8.8-1.6-12.7-2.6-25.5-3.1-38.2s-2-25.4-4.5-38l-.8-3.1c-3.5,6.3-7.1,12.5-10.9,18.6-3.8,6.1-7.7,12-11.9,17.8-2.5,3.5-4.9,6.9-7.5,10.2-2.5,3.3-5.4,6.4-8.5,9.2-.9.9-1.8,1.7-2.8,2.4s-2,1.2-3.3,1.6c-2.8.9-5.5.8-8.1-.3-2.5-.9-4.7-2.2-6.7-3.9-2-1.7-3.9-3.6-5.6-5.5-7.2-7.3-13.6-15.2-19.4-23.4s-11.6-16.6-17.5-25c-.2,4-.3,7.9-.5,11.7s-.3,7.6-.3,11.7c0,8.6,0,17.1,0,25.5,0,8.5.2,17,.4,25.5,0,4.4,0,8.7,0,13.1,0,4.4-1.1,8.5-3,12.3-1.4,2.6-3.8,4.6-7.1,6s-6.9,2.4-10.9,3.1-8,1.1-12,1.3c-4.1.2-7.6.3-10.6.3-1.4-.2-2.8-.3-4.2-.4-1.4,0-2.8-.2-4.2-.4-2.8-.3-5.6-1-8.4-2.1-2.8-1-5.2-2.6-7.1-4.7-1.8-1.9-2.9-4.1-3.4-6.4s-1-4.8-1.3-7.2c-.2-1.9-.3-3.8-.4-5.8,0-1.9-.2-3.8-.4-5.8-.9-23,0-46,2.8-68.9,2.7-22.9,6.9-45.5,12.7-67.8,1.2-4.2,2.4-8.4,3.5-12.6,1.1-4.2,2.7-8.3,4.6-12.3,1.9-4.5,5.1-8,9.4-10.5,2.8-1.4,5.8-2.3,8.9-2.8,3.1-.4,6.4-.7,9.7-.7,5.1-.2,10.2.2,15.5,1,5.2.9,10.2,2.3,14.9,4.2,3.8,1.6,6.7,4.2,8.6,7.9.2.3.3.6.4.7,0,0,.2.3.4.7,3.8,5.6,7.2,11.5,10.2,17.7s5.8,12.3,8.6,18.5c2.3,5.1,4.5,10.1,6.8,15.1s4.4,10,6.3,15.1c1-4,2.3-8,3.7-11.9s2.9-7.8,4.5-11.7c3-7.5,6.1-14.9,9.3-22.1,3.2-7.2,6.6-14.4,10.1-21.6,1-1.9,2.1-3.8,3.3-5.8s2.5-3.6,4.1-5c2.1-1.9,4.5-3.2,7.3-3.9,2.8-.7,5.6-1.2,8.4-1.6,5.6-.9,11.2-1.3,16.9-1.4s11.1.8,16.4,2.8c3,1,5.6,2.6,8,4.6s4.5,4.2,6.4,6.7c2.6,3.8,4.8,7.9,6.4,12.2,1.7,4.3,3.2,8.7,4.6,13.2,5.4,16.6,10,33.3,13.8,50.3,3.8,16.9,7.1,34,10.1,51.1.5,3.5,1.3,8.2,2.2,14,1,5.8,1.7,11.9,2.1,18.2.4,6.3.5,12.3,0,17.9-.3,5.7-1.5,9.9-3.4,12.7-1.9,3-4.7,5.1-8.4,6.3-3.7,1.2-7.2,2.3-10.7,3.1h0v-.3ZM547,43.5c.7.3,1.6.4,2.8.1,1.1-.3,2-.7,2.8-1.2,1.4-1,1.9-2.3,1.4-3.8-.4-1.5-1.5-2.3-3.3-2.5-.5-.2-1.5-.4-3-.7s-2.4-.5-2.8-.7c-1.8-.5-3.5-.6-5.1-.1-1.7.4-3.4.5-5.1.1h-2.6c-1.2,0-2.5,0-3.8.3-1.3.2-2.6.3-3.8.4-1.2,0-2.1.2-2.6.4-.9.3-1.6.8-2.1,1.3s-.6,1.2-.3,2.1c.3.5.8.8,1.4.9.6,0,1.2.2,1.7.4,1.4.2,2.8.2,4.3,0s2.9-.2,4.3,0c1.6.2,3.1.3,4.7.4,1.6,0,3.2.2,5,.4.5,0,1.5.3,3,.8s2.5,1,3,1.3h0c0,.1,0,.1,0,.1ZM668,38.5c1,.2,1.9,0,2.5-.7.6-.6,1-1.3,1.3-2.1s.3-1.6,0-2.5-.8-1.5-1.7-1.8c-.7-.3-1.8-.6-3.4-.7s-3.2,0-4.8.1c-1.7.2-3.3.3-5,.5s-2.8.3-3.5.5c-.9.2-2.4.3-4.5.5s-3.5.4-4.2.8-1.1.9-1.3,1.6c-.2.7,0,1.3.5,1.8.5.3,1.3.6,2.2.7,1,0,2,.1,3.1.1h5.9c2.1.2,4.2.3,6.4.4,2.2,0,4.3.3,6.4.7h0q0,.1,0,0ZM692.4,46.9c-.5,2.5.3,3.5,2.6,3.1,2.1-.3,3.4-1.2,3.8-2.6.4-1.4.3-2.9-.5-4.6-.8-1.7-2.1-3.2-3.9-4.7-1.8-1.5-3.8-2.5-5.9-3-.9-.2-1.7-.4-2.5-.7s-1.5-.2-2.2.1c-1.4.7-2.1,1.6-2,2.6,0,1,.8,1.8,2.2,2.4,1.9.3,3.6,1.2,5,2.6s2.5,3,3.4,4.7h0q0,.1,0,0Z"/>
    <path class="st3" d="M853.4,238c-1.9.5-5,.5-9.3-.1s-8.8-1.4-13.5-2.5c-4.7-1-9.2-2-13.5-3s-7.4-1.6-9.3-2c-2.3-.3-6.2-.7-11.8-.9-5.6-.3-11.5-.6-17.7-1s-12.1-1-17.6-1.6-9.3-1.4-11.4-2.5c-3.1-1.6-5.4-3.9-6.7-7.1s-1.9-6.5-1.7-10.1c.2-3.6,1-7.2,2.5-10.9s3.4-6.9,5.9-9.7c.7-.9,2.4-1.7,5-2.5s5.3-1.6,8-2.5,5.2-1.8,7.5-2.8,3.6-2,3.9-3.3c4-18.2,7.6-36.4,10.7-54.7s5-36.8,5.5-55.3c0-.2-.7-.2-2.2,0s-3.1.4-5,.7-3.7.5-5.5.7-3.1.2-3.8,0c-2.8-.5-5.2-1.9-7.3-4.2-2.1-2.3-3.8-5-5-8.2s-2-6.8-2.2-10.6c-.3-3.8,0-7.5.7-10.9s1.9-6.4,3.5-9c1.7-2.6,3.9-4.5,6.7-5.5,4-1.4,9-2.7,14.9-3.9,5.9-1.2,12.4-2.2,19.4-3s14.2-1.3,21.6-1.4c7.4-.2,14.5,0,21.3.4s13.1,1.3,18.9,2.5,10.6,2.9,14.4,5,6.6,5.5,8.1,10.3c1.6,4.8,2.2,9.5,1.8,14-.5,5.8-1.2,10.3-2,13.8-.8,3.4-2.2,5.9-4.2,7.6-2,1.7-4.8,2.5-8.2,2.6-3.5,0-8.2-.2-14.1-.9-1.8,20.4-4.6,40.5-8.6,60.4-4,19.8-8.5,39.7-13.4,59.6,1.7.3,4,.9,6.8,1.7,2.8.8,5.5,1.8,8.2,2.9s5.2,2.5,7.3,3.9c2.2,1.5,3.7,3,4.6,4.6,1.6,3.1,2.4,6.8,2.5,11s-.5,8.2-1.7,12.2-3.1,7.4-5.5,10.5c-2.4,3-5.3,5-8.6,5.9h0v-.2c0,0,0,0,0,0ZM849.2,27.5c.2,0,.6,0,1.3.3.7.2,1.1.3,1.3.3.9,0,1.7-.3,2.5-1s1-1.5.7-2.4c-.2-.9-.9-1.5-2.1-2s-2.3-.8-3.1-1.2c-1.4-.3-2.8-.5-4.3-.4-1.5,0-3,0-4.6,0-1.8-.2-3.5-.4-5.2-.7s-3.6-.3-5.5,0c-1.4.2-2.8.3-4.1.4-1.3,0-2.6.5-3.8,1.2-.7.3-1.1.9-1.3,1.7-.2.8,0,1.3.8,1.7.7.3,1.3.5,2,.4.6,0,1.3-.1,2-.1,2.4,0,4.8.3,7.1,1,2.3.7,4.6,1,7.1,1,.7-.2,2.3-.2,4.7,0,2.4.2,4,.2,4.7,0h-.2ZM871,31.1c1.2.3,2.5.8,3.8,1.4s2.6.7,3.8.1c1.1-.3,1.7-1.1,2-2.2.3-1.1,0-2-1.2-2.5-.3-.2-1.2-.5-2.6-.9s-2.4-.7-2.9-.7c-.5-.2-1.8-.4-3.9-.7s-3.4-.4-3.9-.4c-1.2,0-2.3.4-3.1,1.2-.9.8-.9,1.6,0,2.5.7.7,2,1.2,3.9,1.4,1.9.3,3.3.5,4.2.7h0q0,.1,0,0Z"/>
    <path class="st4" d="M999,238c-1.9.5-5,.5-9.3-.1s-8.8-1.4-13.5-2.5c-4.7-1-9.2-2-13.5-3s-7.4-1.6-9.3-2c-2.3-.3-6.2-.7-11.8-.9-5.6-.3-11.5-.6-17.7-1s-12.1-1-17.6-1.6-9.3-1.4-11.4-2.5c-3.1-1.6-5.4-3.9-6.7-7.1s-1.9-6.5-1.7-10.1c.2-3.6,1-7.2,2.5-10.9s3.4-6.9,5.9-9.7c.7-.9,2.4-1.7,5-2.5s5.3-1.6,8-2.5,5.2-1.8,7.5-2.8,3.6-2,3.9-3.3c4-18.2,7.6-36.4,10.7-54.7s5-36.8,5.5-55.3c0-.2-.7-.2-2.2,0s-3.1.4-5,.7-3.7.5-5.5.7-3.1.2-3.8,0c-2.8-.5-5.2-1.9-7.3-4.2-2.1-2.3-3.8-5-5-8.2s-2-6.8-2.2-10.6c-.3-3.8,0-7.5.7-10.9s1.9-6.4,3.5-9c1.7-2.6,3.9-4.5,6.7-5.5,4-1.4,9-2.7,14.9-3.9,5.9-1.2,12.4-2.2,19.4-3s14.2-1.3,21.6-1.4c7.4-.2,14.5,0,21.3.4s13.1,1.3,18.9,2.5,10.6,2.9,14.4,5,6.6,5.5,8.1,10.3c1.6,4.8,2.2,9.5,1.8,14-.5,5.8-1.2,10.3-2,13.8-.8,3.4-2.2,5.9-4.2,7.6-2,1.7-4.8,2.5-8.2,2.6-3.5,0-8.2-.2-14.1-.9-1.8,20.4-4.6,40.5-8.6,60.4-4,19.8-8.5,39.7-13.4,59.6,1.7.3,4,.9,6.8,1.7,2.8.8,5.5,1.8,8.2,2.9s5.2,2.5,7.3,3.9c2.2,1.5,3.7,3,4.6,4.6,1.6,3.1,2.4,6.8,2.5,11s-.5,8.2-1.7,12.2-3.1,7.4-5.5,10.5c-2.4,3-5.3,5-8.6,5.9h0v-.2c0,0,0,0,0,0ZM994.8,27.5c.2,0,.6,0,1.3.3.7.2,1.1.3,1.3.3.9,0,1.7-.3,2.5-1s1-1.5.7-2.4c-.2-.9-.9-1.5-2.1-2s-2.3-.8-3.1-1.2c-1.4-.3-2.8-.5-4.3-.4-1.5,0-3,0-4.6,0-1.8-.2-3.5-.4-5.2-.7s-3.6-.3-5.5,0c-1.4.2-2.8.3-4.1.4-1.3,0-2.6.5-3.8,1.2-.7.3-1.1.9-1.3,1.7-.2.8,0,1.3.8,1.7.7.3,1.3.5,2,.4.6,0,1.3-.1,2-.1,2.4,0,4.8.3,7.1,1,2.3.7,4.6,1,7.1,1,.7-.2,2.3-.2,4.7,0,2.4.2,4,.2,4.7,0h-.2ZM1016.6,31.1c1.2.3,2.5.8,3.8,1.4s2.6.7,3.8.1c1.1-.3,1.7-1.1,2-2.2.3-1.1,0-2-1.2-2.5-.3-.2-1.2-.5-2.6-.9s-2.4-.7-2.9-.7c-.5-.2-1.8-.4-3.9-.7s-3.4-.4-3.9-.4c-1.2,0-2.3.4-3.1,1.2-.9.8-.9,1.6,0,2.5.7.7,2,1.2,3.9,1.4,1.9.3,3.3.5,4.2.7h0q0,.1,0,0Z"/>
  </g>
  <g>
    <path class="st2" d="M65.7,225.2c-1.6,2.3-4,4-7.3,5.2s-6.9,2.1-10.7,2.6-7.7.7-11.6.7-7.3-.3-10.1-.7c-5.2-.7-9.5-1.7-12.8-3s-5.9-3.1-7.7-5.5-3-5.4-3.5-9.2c-.5-3.8-.6-8.4-.3-14,1.2-18.9,1.8-37.6,1.8-56.3s.2-37.5.5-56.3c0-3.1,0-7.7.1-13.6,0-5.9.4-12,.9-18.3s1.3-12.2,2.4-17.8,2.6-9.6,4.7-12c2.3-2.6,5.8-4.7,10.5-6.3,4.7-1.6,9.8-2.8,15.3-3.5s10.9-1.2,16.2-1.3c5.3,0,9.7,0,13.2,0,13.1,1,25.9,3.3,38.5,6.7,12.6,3.4,23.7,8.3,33.4,14.7s17.3,14.3,22.9,23.8,8,20.9,7.3,34.2c-.3,6.5-1.7,13-4.1,19.6s-5.8,12.6-10.2,17.9c-4.5,5.3-10,9.7-16.5,13s-14.2,5-22.9,5c4,2.6,8.5,5.6,13.5,9s9.8,7,14.5,10.9c4.7,3.8,9.1,7.8,13.1,11.9s7.1,8.1,9.2,12,3,7.8,2.8,11.5c-.3,3.8-2.2,7.2-5.9,10.3-3.5,3-7.2,5.5-11.1,7.7s-8,3.7-12,4.5c-4.1.8-8.1.7-11.9-.3s-7.4-3-10.7-6.2c-8.7-8.5-17.4-17.1-25.9-25.5-8.6-8.5-17.5-16.5-27-24,.7,3,1.5,6.9,2.5,11.8s1.7,9.9,2.1,15.1.5,10,.1,14.7-1.4,8.2-3.1,10.9h-.2,0ZM63.1,106.6c5.4.9,11.1,1,17,.5s11.1-1.7,15.5-3.5,7.4-4.3,9-7.5c1.7-3.1.9-7-2.2-11.5-3.3-4.5-8-7.9-13.9-10s-11.7-3-17.3-2.9c-3.3.2-5.6,1.4-6.8,3.8s-1.9,5.3-2.1,8.8,0,7.2.4,11.3c.4,4,.6,7.7.4,11h0ZM129.8,51.3c.7,1.2,1.7,1.8,3.1,1.7,1.4,0,2.6-.6,3.7-1.4.9-.9.9-1.9.1-3s-1.7-2.1-2.8-3c-.9-.7-1.7-1.5-2.4-2.5-.7-1-1.6-1.6-2.6-2-.9-.5-1.8-.9-2.8-1.2s-1.9-.6-2.8-.9c-1.4-.5-2.7-1.2-3.9-2-1.2-.8-2.5-1.4-3.9-2-1.8-.7-3.5-1.4-5.1-2.1-1.7-.7-3.4-1.2-5.1-1.6-.9-.2-2.7-.3-5.4-.5-2.7-.2-4.5,0-5.4.3s-1.5.8-1.8,1.4c-.4.6-.3,1.3.3,2,.4.3,1.1.6,2.2.8s2,.3,2.5.5c2.4.3,4.9,1,7.2,1.8,2.4.9,4.8,1.8,7.2,2.6,1.2.3,2.3,1,3.3,2.1s2,1.8,3.3,2.4c1.6.9,3.1,1.4,4.7,1.6.7.3,1.3.7,1.8,1.2s1,.8,1.6,1.2c.4.3.9.8,1.6,1.3s1.1,1,1.3,1.3h.1,0ZM154.7,84c1.2.3,2.3.2,3.3-.4s1.4-1.6,1.2-3c-.5-2.8-1.4-5.5-2.6-8s-2.5-5-3.7-7.5c-.9-1.7-2-3.3-3.3-4.6s-2.7-2.4-4.1-3.3c-1-1.4-2.3-1.7-3.8-.8s-1.8,2.1-.9,3.7c.2.3.8.9,2,1.7,1.1.8,1.8,1.3,2,1.7,2.1,2.8,3.9,5.8,5.4,8.9,1.5,3.1,2.6,6.5,3.3,10,0,.7.4,1.2,1.3,1.6h-.1,0Z"/>
    <path class="st2" d="M240.1,231.8c-4.4.2-8.7.2-13,0s-8.6-.6-13-1.3c-3.8-.5-7.6-1.5-11.3-2.9s-7-3.3-10-5.8c-3.5-3.1-6.2-6.8-8.1-11.1s-3.4-8.7-4.5-13.2c-1.9-8-3-16.1-3.3-24.2s-.2-16.2.1-24.2c.3-12.6,1.1-25,2.4-37.5,1.2-12.4,2.7-24.9,4.5-37.5v-.5c.5-15.7,3.3-31.2,8.4-46.3.9-2.6,2-5.2,3.3-7.9s3-5,5.1-7.1c3-3,6.5-5.2,10.7-6.5,4.2-1.4,8.4-2.4,12.6-3.1,6.6-1,13.2-1.4,19.6-1,6.5.3,13,.7,19.6,1,12.7.5,25.2,1.3,37.5,2.4,5.4.3,10.8,1.1,16.2,2.4,5.4,1.2,10.5,3.2,15.2,6,1.4.9,2.8,1.9,4.3,3s2.5,2.5,3,4.1c.3,1,.5,2.7.4,5,0,2.3-.3,4.6-.7,7.1-.3,2.5-.8,4.8-1.3,7.1s-.9,3.9-1,5c-.7,3.5-1.8,6.9-3.4,10.3s-3.8,6.3-6.5,8.8c-3,2.6-6.2,4.2-9.7,4.7-3.8.9-7.8,1.1-11.8.7-4-.4-8-1.2-11.8-2.2-12.6-3.3-25.3-5.7-38.2-7.1-1.6-.3-3.4-.5-5.4-.5s-3.2.7-3.5,2.1c-.3.9-.7,2-.9,3.5s-.5,3.1-.7,4.7c-.2,1.7-.3,3.3-.4,4.8,0,1.6,0,2.7.4,3.4.2.5.6.8,1.2.9.6,0,1.2.2,1.7.4,6.6.2,13.3-.2,20-1,6.7-.9,13.4-.9,20,0,3,.3,6,1,9.2,2.1,3.1,1,5.7,2.7,7.6,5,1,1.2,1.7,3,2.1,5.4.3,2.4.4,4.9.3,7.6-.2,2.7-.4,5.3-.8,7.9-.3,2.5-.6,4.6-.8,6.2-.3,2.1-.8,4.2-1.3,6.2s-1.3,4-2.4,5.9c-1.4,2.5-3.2,4.4-5.5,5.8-2.3,1.2-4.6,2-7.1,2.2-2.5.3-4.9.4-7.3.4-6.1.2-12.1-.1-18.1-.9-5.9-.8-12-1.2-18.1-1.2s-2.1,0-3.8.1-2.8.4-3.3.9c-.3.3-.6,1.1-.8,2.4-.2,1.2-.3,2.1-.3,2.6-.3,4.5,0,8.8,1,12.8.7,2.8,2.2,4.7,4.5,5.8.5.3,1.7.6,3.7.8,1.9.2,3.2.3,3.9.3,10-.3,19.7-1.9,29.3-4.6,9.6-2.7,19.3-5.1,29.1-7.2,1.9-.3,4-.6,6.2-.7,2.2,0,4.1.4,5.9,1.4,2.3,1.6,4,3.8,5.2,6.8,1.4,2.5,2.4,5.1,3.1,7.9.7,2.8,1.2,5.6,1.6,8.4.7,4.5,1.1,9,1.3,13.5s-.2,8.9-1,13.2c-.3,2.3-1,4.5-1.8,6.5-.9,2.1-2,4-3.4,5.8-2.6,3.1-5.9,5.7-10,7.6-3.5,1.8-7.2,3.1-11,4.1s-7.7,1.9-11.5,2.8c-8.9,2.1-17.8,4.2-26.7,6.3-8.9,2.1-17.9,3.4-27,3.9h0l.3-.5h0ZM293.2,19.6c1,.2,2-.2,2.9-1s1.1-1.7.8-2.6c-.2-.3-.4-.6-.8-.8-.3-.2-.6-.4-.8-.8-.7-.9-1.6-1.4-2.8-1.6-1.1-.2-2.2-.4-3.3-.8-1.8-.3-3.4-.7-5-.9-1.6-.3-3.2-.5-5-.7-.9-.2-2.7,0-5.4,0s-4.5.5-5.4.7c-1.4.2-2.5.7-3.4,1.7s-.8,1.9.3,2.8c.5.3,1.3.6,2.4.7,1,0,2.2.2,3.4.3,1.2,0,2.4,0,3.7,0h2.6c1.9.3,3.8.8,5.5,1.3s3.6,1,5.5,1.3c.9.2,1.7.2,2.4,0,.7,0,1.5,0,2.4,0h0ZM286.7,92.7c.5.2,1,.3,1.6.5.5.2,1,.3,1.6.3,1.6,0,2.8-.7,3.7-2s.6-2.4-.8-3.3c-.9-.5-2.2-.9-4.1-1-1.8-.2-3.8-.3-5.9-.3s-4.1,0-5.9.3c-1.8.2-3.3.3-4.3.3s-2.4.2-2.9.5c-.9.5-1.3,1.2-1.3,2.1s.4,1.4,1.3,1.6c1.2.3,2.4.5,3.5.5s2.3,0,3.5-.3c.9,0,2.6,0,5.1.1,2.5,0,4.2.3,4.8.7h.1ZM320.2,24.6c1.7.3,3.4.9,5,1.7s3.1.9,4.7.4c1.4-.5,2.3-1.4,2.6-2.8s-.2-2.3-1.6-3c-.5-.2-1.4-.3-2.6-.3-.9-.3-1.8-.7-2.8-.9s-1.9-.5-2.8-.7c-.3-.2-1.2-.2-2.5,0-1.3,0-2.1,0-2.5,0-3.7-1-7.5-1.6-11.5-1.6s-2.1.5-2.6,1.6-.3,1.9.8,2.6c.5.3,1.7.7,3.7.9,1.9.3,3.2.5,3.9.7.5.2,1,.4,1.6.7s1,.5,1.6.7c.9.2,1.7.2,2.5.1.8,0,1.6,0,2.5.1h0Z"/>
    <path class="st2" d="M450.6,238c-1.9.5-5,.5-9.3-.1s-8.8-1.4-13.5-2.5c-4.7-1-9.2-2-13.5-3s-7.4-1.6-9.3-2c-2.3-.3-6.2-.7-11.8-.9-5.6-.3-11.5-.6-17.7-1s-12-1-17.5-1.6-9.3-1.4-11.4-2.5c-3.1-1.6-5.4-3.9-6.7-7.1s-1.9-6.5-1.7-10.1,1-7.2,2.5-10.9,3.4-6.9,5.9-9.7c.7-.9,2.4-1.7,5-2.5s5.3-1.6,8-2.5,5.2-1.8,7.5-2.8,3.6-2,3.9-3.3c4-18.2,7.6-36.4,10.7-54.7,3.1-18.3,5-36.8,5.5-55.3,0-.2-.7-.2-2.2,0s-3.1.4-5,.7-3.7.5-5.5.7-3.1.2-3.8,0c-2.8-.5-5.2-1.9-7.3-4.2s-3.8-5-5-8.2-2-6.8-2.2-10.6c-.3-3.8,0-7.5.7-10.9s1.9-6.4,3.5-9c1.7-2.6,3.9-4.5,6.7-5.5,4-1.4,9-2.7,14.9-3.9,5.9-1.2,12.4-2.2,19.4-3s14.2-1.3,21.6-1.4c7.4-.2,14.5,0,21.3.4s13.1,1.3,18.9,2.5c5.8,1.2,10.6,2.9,14.4,5,3.8,2.1,6.5,5.5,8.1,10.3,1.6,4.8,2.2,9.5,1.8,14-.5,5.8-1.2,10.3-2,13.8s-2.2,5.9-4.2,7.6c-2,1.7-4.8,2.5-8.2,2.6-3.5,0-8.2-.2-14.1-.9-1.8,20.4-4.6,40.5-8.6,60.4-4,19.8-8.5,39.7-13.4,59.6,1.7.3,4,.9,6.8,1.7,2.8.8,5.5,1.8,8.2,2.9s5.2,2.5,7.3,3.9c2.2,1.5,3.7,3,4.6,4.6,1.6,3.1,2.4,6.8,2.5,11,0,4.2-.5,8.2-1.7,12.2-1.2,3.9-3.1,7.4-5.5,10.5-2.5,3-5.3,5-8.6,5.9h0v-.2h0ZM446.4,27.5c.2,0,.6,0,1.3.3.7.2,1.1.3,1.3.3.9,0,1.7-.3,2.5-1s1-1.5.7-2.4c-.2-.9-.9-1.5-2.1-2s-2.3-.8-3.1-1.2c-1.4-.3-2.8-.5-4.3-.4-1.5,0-3,0-4.6,0-1.8-.2-3.5-.4-5.2-.7s-3.6-.3-5.5,0c-1.4.2-2.8.3-4.1.4-1.3,0-2.6.5-3.8,1.2-.7.3-1.1.9-1.3,1.7-.2.8,0,1.3.8,1.7.7.3,1.3.5,2,.4.6,0,1.3-.1,2-.1,2.4,0,4.8.3,7.1,1s4.6,1,7.1,1c.7-.2,2.3-.2,4.7,0s4,.2,4.7,0h-.2ZM468.2,31.1c1.2.3,2.5.8,3.8,1.4s2.6.7,3.8.1c1-.3,1.7-1.1,2-2.2.3-1.1,0-2-1.2-2.5-.3-.2-1.2-.5-2.6-.9-1.4-.4-2.4-.7-2.9-.7-.5-.2-1.8-.4-3.9-.7s-3.4-.4-3.9-.4c-1.2,0-2.3.4-3.1,1.2-.9.8-.9,1.6,0,2.5.7.7,2,1.2,3.9,1.4,1.9.3,3.3.5,4.2.7h0q0,.1,0,0Z"/>
    <path class="st2" d="M718.8,230.7c-4.7.9-9.4,1.5-14.1,1.8-4.7.3-9.4.2-14.1-.5-2.8-.3-5.6-.9-8.4-1.6-2.8-.7-5.3-2-7.6-3.9-1.8-1.4-3.2-3.1-4.3-5.2s-2-4.3-2.8-6.5c-.9-2.8-1.5-5.6-2-8.5-.4-2.9-.8-5.8-1.2-8.8-1.6-12.7-2.6-25.5-3.1-38.2s-2-25.4-4.5-38l-.8-3.1c-3.5,6.3-7.1,12.5-10.9,18.6-3.8,6.1-7.7,12-11.9,17.8-2.5,3.5-4.9,6.9-7.5,10.2-2.5,3.3-5.4,6.4-8.5,9.2-.9.9-1.8,1.7-2.8,2.4s-2,1.2-3.3,1.6c-2.8.9-5.5.8-8.1-.3-2.5-.9-4.7-2.2-6.7-3.9-2-1.7-3.9-3.6-5.6-5.5-7.2-7.3-13.6-15.2-19.4-23.4s-11.6-16.6-17.5-25c-.2,4-.3,7.9-.5,11.7s-.3,7.6-.3,11.7c0,8.6,0,17.1,0,25.5,0,8.5.2,17,.4,25.5,0,4.4,0,8.7,0,13.1,0,4.4-1.1,8.5-3,12.3-1.4,2.6-3.8,4.6-7.1,6s-6.9,2.4-10.9,3.1-8,1.1-12,1.3c-4.1.2-7.6.3-10.6.3-1.4-.2-2.8-.3-4.2-.4-1.4,0-2.8-.2-4.2-.4-2.8-.3-5.6-1-8.4-2.1-2.8-1-5.2-2.6-7.1-4.7-1.8-1.9-2.9-4.1-3.4-6.4s-1-4.8-1.3-7.2c-.2-1.9-.3-3.8-.4-5.8,0-1.9-.2-3.8-.4-5.8-.9-23,0-46,2.8-68.9,2.7-22.9,6.9-45.5,12.7-67.8,1.2-4.2,2.4-8.4,3.5-12.6,1.1-4.2,2.7-8.3,4.6-12.3,1.9-4.5,5.1-8,9.4-10.5,2.8-1.4,5.8-2.3,8.9-2.8,3.1-.4,6.4-.7,9.7-.7,5.1-.2,10.2.2,15.5,1,5.2.9,10.2,2.3,14.9,4.2,3.8,1.6,6.7,4.2,8.6,7.9.2.3.3.6.4.7,0,0,.2.3.4.7,3.8,5.6,7.2,11.5,10.2,17.7s5.8,12.3,8.6,18.5c2.3,5.1,4.5,10.1,6.8,15.1s4.4,10,6.3,15.1c1-4,2.3-8,3.7-11.9s2.9-7.8,4.5-11.7c3-7.5,6.1-14.9,9.3-22.1,3.2-7.2,6.6-14.4,10.1-21.6,1-1.9,2.1-3.8,3.3-5.8s2.5-3.6,4.1-5c2.1-1.9,4.5-3.2,7.3-3.9,2.8-.7,5.6-1.2,8.4-1.6,5.6-.9,11.2-1.3,16.9-1.4s11.1.8,16.4,2.8c3,1,5.6,2.6,8,4.6s4.5,4.2,6.4,6.7c2.6,3.8,4.8,7.9,6.4,12.2,1.7,4.3,3.2,8.7,4.6,13.2,5.4,16.6,10,33.3,13.8,50.3,3.8,16.9,7.1,34,10.1,51.1.5,3.5,1.3,8.2,2.2,14,1,5.8,1.7,11.9,2.1,18.2.4,6.3.5,12.3,0,17.9-.3,5.7-1.5,9.9-3.4,12.7-1.9,3-4.7,5.1-8.4,6.3-3.7,1.2-7.2,2.3-10.7,3.1h0v-.3ZM547,43.5c.7.3,1.6.4,2.8.1,1.1-.3,2-.7,2.8-1.2,1.4-1,1.9-2.3,1.4-3.8-.4-1.5-1.5-2.3-3.3-2.5-.5-.2-1.5-.4-3-.7s-2.4-.5-2.8-.7c-1.8-.5-3.5-.6-5.1-.1-1.7.4-3.4.5-5.1.1h-2.6c-1.2,0-2.5,0-3.8.3-1.3.2-2.6.3-3.8.4-1.2,0-2.1.2-2.6.4-.9.3-1.6.8-2.1,1.3s-.6,1.2-.3,2.1c.3.5.8.8,1.4.9.6,0,1.2.2,1.7.4,1.4.2,2.8.2,4.3,0s2.9-.2,4.3,0c1.6.2,3.1.3,4.7.4,1.6,0,3.2.2,5,.4.5,0,1.5.3,3,.8s2.5,1,3,1.3h0c0,.1,0,.1,0,.1ZM668,38.5c1,.2,1.9,0,2.5-.7.6-.6,1-1.3,1.3-2.1s.3-1.6,0-2.5-.8-1.5-1.7-1.8c-.7-.3-1.8-.6-3.4-.7s-3.2,0-4.8.1c-1.7.2-3.3.3-5,.5s-2.8.3-3.5.5c-.9.2-2.4.3-4.5.5s-3.5.4-4.2.8-1.1.9-1.3,1.6c-.2.7,0,1.3.5,1.8.5.3,1.3.6,2.2.7,1,0,2,.1,3.1.1h5.9c2.1.2,4.2.3,6.4.4,2.2,0,4.3.3,6.4.7h0q0,.1,0,0ZM692.4,46.9c-.5,2.5.3,3.5,2.6,3.1,2.1-.3,3.4-1.2,3.8-2.6.4-1.4.3-2.9-.5-4.6-.8-1.7-2.1-3.2-3.9-4.7-1.8-1.5-3.8-2.5-5.9-3-.9-.2-1.7-.4-2.5-.7s-1.5-.2-2.2.1c-1.4.7-2.1,1.6-2,2.6,0,1,.8,1.8,2.2,2.4,1.9.3,3.6,1.2,5,2.6s2.5,3,3.4,4.7h0q0,.1,0,0Z"/>
    <path class="st2" d="M853.4,238c-1.9.5-5,.5-9.3-.1s-8.8-1.4-13.5-2.5c-4.7-1-9.2-2-13.5-3s-7.4-1.6-9.3-2c-2.3-.3-6.2-.7-11.8-.9-5.6-.3-11.5-.6-17.7-1s-12.1-1-17.6-1.6-9.3-1.4-11.4-2.5c-3.1-1.6-5.4-3.9-6.7-7.1s-1.9-6.5-1.7-10.1c.2-3.6,1-7.2,2.5-10.9s3.4-6.9,5.9-9.7c.7-.9,2.4-1.7,5-2.5s5.3-1.6,8-2.5,5.2-1.8,7.5-2.8,3.6-2,3.9-3.3c4-18.2,7.6-36.4,10.7-54.7s5-36.8,5.5-55.3c0-.2-.7-.2-2.2,0s-3.1.4-5,.7-3.7.5-5.5.7-3.1.2-3.8,0c-2.8-.5-5.2-1.9-7.3-4.2-2.1-2.3-3.8-5-5-8.2s-2-6.8-2.2-10.6c-.3-3.8,0-7.5.7-10.9s1.9-6.4,3.5-9c1.7-2.6,3.9-4.5,6.7-5.5,4-1.4,9-2.7,14.9-3.9,5.9-1.2,12.4-2.2,19.4-3s14.2-1.3,21.6-1.4c7.4-.2,14.5,0,21.3.4s13.1,1.3,18.9,2.5,10.6,2.9,14.4,5,6.6,5.5,8.1,10.3c1.6,4.8,2.2,9.5,1.8,14-.5,5.8-1.2,10.3-2,13.8-.8,3.4-2.2,5.9-4.2,7.6-2,1.7-4.8,2.5-8.2,2.6-3.5,0-8.2-.2-14.1-.9-1.8,20.4-4.6,40.5-8.6,60.4-4,19.8-8.5,39.7-13.4,59.6,1.7.3,4,.9,6.8,1.7,2.8.8,5.5,1.8,8.2,2.9s5.2,2.5,7.3,3.9c2.2,1.5,3.7,3,4.6,4.6,1.6,3.1,2.4,6.8,2.5,11s-.5,8.2-1.7,12.2-3.1,7.4-5.5,10.5c-2.4,3-5.3,5-8.6,5.9h0v-.2c0,0,0,0,0,0ZM849.2,27.5c.2,0,.6,0,1.3.3.7.2,1.1.3,1.3.3.9,0,1.7-.3,2.5-1s1-1.5.7-2.4c-.2-.9-.9-1.5-2.1-2s-2.3-.8-3.1-1.2c-1.4-.3-2.8-.5-4.3-.4-1.5,0-3,0-4.6,0-1.8-.2-3.5-.4-5.2-.7s-3.6-.3-5.5,0c-1.4.2-2.8.3-4.1.4-1.3,0-2.6.5-3.8,1.2-.7.3-1.1.9-1.3,1.7-.2.8,0,1.3.8,1.7.7.3,1.3.5,2,.4.6,0,1.3-.1,2-.1,2.4,0,4.8.3,7.1,1,2.3.7,4.6,1,7.1,1,.7-.2,2.3-.2,4.7,0,2.4.2,4,.2,4.7,0h-.2ZM871,31.1c1.2.3,2.5.8,3.8,1.4s2.6.7,3.8.1c1.1-.3,1.7-1.1,2-2.2.3-1.1,0-2-1.2-2.5-.3-.2-1.2-.5-2.6-.9s-2.4-.7-2.9-.7c-.5-.2-1.8-.4-3.9-.7s-3.4-.4-3.9-.4c-1.2,0-2.3.4-3.1,1.2-.9.8-.9,1.6,0,2.5.7.7,2,1.2,3.9,1.4,1.9.3,3.3.5,4.2.7h0q0,.1,0,0Z"/>
    <path class="st2" d="M999,238c-1.9.5-5,.5-9.3-.1s-8.8-1.4-13.5-2.5c-4.7-1-9.2-2-13.5-3s-7.4-1.6-9.3-2c-2.3-.3-6.2-.7-11.8-.9-5.6-.3-11.5-.6-17.7-1s-12.1-1-17.6-1.6-9.3-1.4-11.4-2.5c-3.1-1.6-5.4-3.9-6.7-7.1s-1.9-6.5-1.7-10.1c.2-3.6,1-7.2,2.5-10.9s3.4-6.9,5.9-9.7c.7-.9,2.4-1.7,5-2.5s5.3-1.6,8-2.5,5.2-1.8,7.5-2.8,3.6-2,3.9-3.3c4-18.2,7.6-36.4,10.7-54.7s5-36.8,5.5-55.3c0-.2-.7-.2-2.2,0s-3.1.4-5,.7-3.7.5-5.5.7-3.1.2-3.8,0c-2.8-.5-5.2-1.9-7.3-4.2-2.1-2.3-3.8-5-5-8.2s-2-6.8-2.2-10.6c-.3-3.8,0-7.5.7-10.9s1.9-6.4,3.5-9c1.7-2.6,3.9-4.5,6.7-5.5,4-1.4,9-2.7,14.9-3.9,5.9-1.2,12.4-2.2,19.4-3s14.2-1.3,21.6-1.4c7.4-.2,14.5,0,21.3.4s13.1,1.3,18.9,2.5,10.6,2.9,14.4,5,6.6,5.5,8.1,10.3c1.6,4.8,2.2,9.5,1.8,14-.5,5.8-1.2,10.3-2,13.8-.8,3.4-2.2,5.9-4.2,7.6-2,1.7-4.8,2.5-8.2,2.6-3.5,0-8.2-.2-14.1-.9-1.8,20.4-4.6,40.5-8.6,60.4-4,19.8-8.5,39.7-13.4,59.6,1.7.3,4,.9,6.8,1.7,2.8.8,5.5,1.8,8.2,2.9s5.2,2.5,7.3,3.9c2.2,1.5,3.7,3,4.6,4.6,1.6,3.1,2.4,6.8,2.5,11s-.5,8.2-1.7,12.2-3.1,7.4-5.5,10.5c-2.4,3-5.3,5-8.6,5.9h0v-.2c0,0,0,0,0,0ZM994.8,27.5c.2,0,.6,0,1.3.3.7.2,1.1.3,1.3.3.9,0,1.7-.3,2.5-1s1-1.5.7-2.4c-.2-.9-.9-1.5-2.1-2s-2.3-.8-3.1-1.2c-1.4-.3-2.8-.5-4.3-.4-1.5,0-3,0-4.6,0-1.8-.2-3.5-.4-5.2-.7s-3.6-.3-5.5,0c-1.4.2-2.8.3-4.1.4-1.3,0-2.6.5-3.8,1.2-.7.3-1.1.9-1.3,1.7-.2.8,0,1.3.8,1.7.7.3,1.3.5,2,.4.6,0,1.3-.1,2-.1,2.4,0,4.8.3,7.1,1,2.3.7,4.6,1,7.1,1,.7-.2,2.3-.2,4.7,0,2.4.2,4,.2,4.7,0h-.2ZM1016.6,31.1c1.2.3,2.5.8,3.8,1.4s2.6.7,3.8.1c1.1-.3,1.7-1.1,2-2.2.3-1.1,0-2-1.2-2.5-.3-.2-1.2-.5-2.6-.9s-2.4-.7-2.9-.7c-.5-.2-1.8-.4-3.9-.7s-3.4-.4-3.9-.4c-1.2,0-2.3.4-3.1,1.2-.9.8-.9,1.6,0,2.5.7.7,2,1.2,3.9,1.4,1.9.3,3.3.5,4.2.7h0q0,.1,0,0Z"/>
  </g>
</svg>